solid OpenSCAD_Model
  facet normal -0 0 1
    outer loop
      vertex -10 35 20
      vertex 10 -38 20
      vertex 10 35 20
    endloop
  endfacet
  facet normal 0 0 1
    outer loop
      vertex 10 -38 20
      vertex -10 35 20
      vertex -10 -38 20
    endloop
  endfacet
  facet normal 0 0 1
    outer loop
      vertex 13 38 30
      vertex 10 35 30
      vertex 13 -38 30
    endloop
  endfacet
  facet normal 0 0 1
    outer loop
      vertex 13 38 30
      vertex -10 35 30
      vertex 10 35 30
    endloop
  endfacet
  facet normal -0 0 1
    outer loop
      vertex -13 38 30
      vertex -10 35 30
      vertex 13 38 30
    endloop
  endfacet
  facet normal 0 0 1
    outer loop
      vertex -13 -38 30
      vertex -10 35 30
      vertex -13 38 30
    endloop
  endfacet
  facet normal 0 0 1
    outer loop
      vertex -10 35 30
      vertex -13 -38 30
      vertex -10 -38 30
    endloop
  endfacet
  facet normal 0 0 1
    outer loop
      vertex 13 -38 30
      vertex 10 35 30
      vertex 10 -38 30
    endloop
  endfacet
  facet normal -1 0 0
    outer loop
      vertex 10 -38 20
      vertex 10 35 30
      vertex 10 35 20
    endloop
  endfacet
  facet normal -1 -0 0
    outer loop
      vertex 10 35 30
      vertex 10 -38 20
      vertex 10 -38 30
    endloop
  endfacet
  facet normal 0 -1 0
    outer loop
      vertex -13 -38 30
      vertex -10 -38 20
      vertex -10 -38 30
    endloop
  endfacet
  facet normal 0 -1 -0
    outer loop
      vertex -10 -38 20
      vertex -13 -38 0
      vertex 10 -38 20
    endloop
  endfacet
  facet normal 0 -1 0
    outer loop
      vertex -13 -38 0
      vertex -10 -38 20
      vertex -13 -38 30
    endloop
  endfacet
  facet normal 0 -1 0
    outer loop
      vertex 10 -38 20
      vertex 13 -38 30
      vertex 10 -38 30
    endloop
  endfacet
  facet normal 0 -1 0
    outer loop
      vertex 10 -38 20
      vertex 13 -38 0
      vertex 13 -38 30
    endloop
  endfacet
  facet normal 0 -1 0
    outer loop
      vertex 13 -38 0
      vertex 10 -38 20
      vertex -13 -38 0
    endloop
  endfacet
  facet normal 1 0 0
    outer loop
      vertex 13 -38 0
      vertex 13 38 30
      vertex 13 -38 30
    endloop
  endfacet
  facet normal 1 0 0
    outer loop
      vertex 13 38 30
      vertex 13 -38 0
      vertex 13 38 -3
    endloop
  endfacet
  facet normal 0 1 -0
    outer loop
      vertex 13 38 -3
      vertex -13 38 30
      vertex 13 38 30
    endloop
  endfacet
  facet normal 0 1 0
    outer loop
      vertex -13 38 30
      vertex 13 38 -3
      vertex -13 38 -3
    endloop
  endfacet
  facet normal -1 0 0
    outer loop
      vertex -13 -38 0
      vertex -13 38 30
      vertex -13 38 -3
    endloop
  endfacet
  facet normal -1 -0 0
    outer loop
      vertex -13 38 30
      vertex -13 -38 0
      vertex -13 -38 30
    endloop
  endfacet
  facet normal 1 -0 0
    outer loop
      vertex -10 -38 30
      vertex -10 35 20
      vertex -10 35 30
    endloop
  endfacet
  facet normal 1 0 0
    outer loop
      vertex -10 35 20
      vertex -10 -38 30
      vertex -10 -38 20
    endloop
  endfacet
  facet normal 0 -1 0
    outer loop
      vertex -10 35 20
      vertex 10 35 30
      vertex -10 35 30
    endloop
  endfacet
  facet normal 0 -1 -0
    outer loop
      vertex 10 35 30
      vertex -10 35 20
      vertex 10 35 20
    endloop
  endfacet
  facet normal 0 -0.039443 -0.999222
    outer loop
      vertex -13 -38 0
      vertex 13 38 -3
      vertex 13 -38 0
    endloop
  endfacet
  facet normal -0 -0.039443 -0.999222
    outer loop
      vertex 13 38 -3
      vertex -13 -38 0
      vertex -13 38 -3
    endloop
  endfacet
endsolid OpenSCAD_Model
