solid OpenSCAD_Model
  facet normal -0 0 1
    outer loop
      vertex -7.5 35 1
      vertex 7.5 -37 1
      vertex 7.5 35 1
    endloop
  endfacet
  facet normal 0 0 1
    outer loop
      vertex 7.5 -37 1
      vertex -7.5 35 1
      vertex -7.5 -37 1
    endloop
  endfacet
  facet normal 0 0 1
    outer loop
      vertex 9.5 37 6
      vertex 7.5 35 6
      vertex 9.5 -37 6
    endloop
  endfacet
  facet normal 0 0 1
    outer loop
      vertex 9.5 37 6
      vertex -7.5 35 6
      vertex 7.5 35 6
    endloop
  endfacet
  facet normal -0 0 1
    outer loop
      vertex -9.5 37 6
      vertex -7.5 35 6
      vertex 9.5 37 6
    endloop
  endfacet
  facet normal 0 0 1
    outer loop
      vertex -9.5 -37 6
      vertex -7.5 35 6
      vertex -9.5 37 6
    endloop
  endfacet
  facet normal 0 0 1
    outer loop
      vertex -7.5 35 6
      vertex -9.5 -37 6
      vertex -7.5 -37 6
    endloop
  endfacet
  facet normal 0 0 1
    outer loop
      vertex 9.5 -37 6
      vertex 7.5 35 6
      vertex 7.5 -37 6
    endloop
  endfacet
  facet normal -1 0 0
    outer loop
      vertex 7.5 -37 1
      vertex 7.5 35 6
      vertex 7.5 35 1
    endloop
  endfacet
  facet normal -1 -0 0
    outer loop
      vertex 7.5 35 6
      vertex 7.5 -37 1
      vertex 7.5 -37 6
    endloop
  endfacet
  facet normal 0 -1 0
    outer loop
      vertex -9.5 -37 6
      vertex -7.5 -37 1
      vertex -7.5 -37 6
    endloop
  endfacet
  facet normal 0 -1 -0
    outer loop
      vertex -7.5 -37 1
      vertex -9.5 -37 0
      vertex 7.5 -37 1
    endloop
  endfacet
  facet normal 0 -1 0
    outer loop
      vertex -9.5 -37 0
      vertex -7.5 -37 1
      vertex -9.5 -37 6
    endloop
  endfacet
  facet normal 0 -1 0
    outer loop
      vertex 7.5 -37 1
      vertex 9.5 -37 6
      vertex 7.5 -37 6
    endloop
  endfacet
  facet normal 0 -1 0
    outer loop
      vertex 7.5 -37 1
      vertex 9.5 -37 0
      vertex 9.5 -37 6
    endloop
  endfacet
  facet normal 0 -1 0
    outer loop
      vertex 9.5 -37 0
      vertex 7.5 -37 1
      vertex -9.5 -37 0
    endloop
  endfacet
  facet normal 1 0 0
    outer loop
      vertex 9.5 -37 0
      vertex 9.5 37 6
      vertex 9.5 -37 6
    endloop
  endfacet
  facet normal 1 0 0
    outer loop
      vertex 9.5 37 6
      vertex 9.5 -37 0
      vertex 9.5 37 -3
    endloop
  endfacet
  facet normal 0 1 -0
    outer loop
      vertex 9.5 37 -3
      vertex -9.5 37 6
      vertex 9.5 37 6
    endloop
  endfacet
  facet normal 0 1 0
    outer loop
      vertex -9.5 37 6
      vertex 9.5 37 -3
      vertex -9.5 37 -3
    endloop
  endfacet
  facet normal -1 0 0
    outer loop
      vertex -9.5 -37 0
      vertex -9.5 37 6
      vertex -9.5 37 -3
    endloop
  endfacet
  facet normal -1 -0 0
    outer loop
      vertex -9.5 37 6
      vertex -9.5 -37 0
      vertex -9.5 -37 6
    endloop
  endfacet
  facet normal 1 -0 0
    outer loop
      vertex -7.5 -37 6
      vertex -7.5 35 1
      vertex -7.5 35 6
    endloop
  endfacet
  facet normal 1 0 0
    outer loop
      vertex -7.5 35 1
      vertex -7.5 -37 6
      vertex -7.5 -37 1
    endloop
  endfacet
  facet normal 0 -1 0
    outer loop
      vertex -7.5 35 1
      vertex 7.5 35 6
      vertex -7.5 35 6
    endloop
  endfacet
  facet normal 0 -1 -0
    outer loop
      vertex 7.5 35 6
      vertex -7.5 35 1
      vertex 7.5 35 1
    endloop
  endfacet
  facet normal 0 -0.0405073 -0.999179
    outer loop
      vertex -9.5 -37 0
      vertex 9.5 37 -3
      vertex 9.5 -37 0
    endloop
  endfacet
  facet normal -0 -0.0405073 -0.999179
    outer loop
      vertex 9.5 37 -3
      vertex -9.5 -37 0
      vertex -9.5 37 -3
    endloop
  endfacet
endsolid OpenSCAD_Model
